Coordinates
version=1
nRows=60
nColumns=12
inDegrees=yes

Units are S.I. units (second, meters, Newtons, ...)
Angles are in degrees

endheader
time	SC_y	SC_z	SC_x	AC_y	AC_z	AC_x	GH_y	GH_z	GH_yy	EL_x	PS_y
       0.0              -39.65           17.5          79.95          61.84          3.985          9.667         -142.4          70.24          47.76          71.88          78.08
   0.03652              -39.65           17.5          79.94          61.84          3.983          9.666         -142.4          70.23          47.73          71.88          78.07
   0.07304              -39.65           17.5          79.93          61.83           3.98          9.665         -142.3          70.22          47.71          71.87          78.06
    0.1096              -39.65           17.5          79.92          61.83          3.978          9.664         -142.3           70.2          47.68          71.87          78.06
    0.1461              -39.64          17.49          79.91          61.82          3.975          9.663         -142.3          70.19          47.65          71.87          78.05
    0.1826              -39.64          17.49           79.9          61.82          3.972          9.662         -142.2          70.17          47.61          71.87          78.04
    0.2191              -39.64          17.49          79.89          61.82          3.969          9.661         -142.2          70.15          47.58          71.86          78.03
    0.2556              -39.64          17.49          79.88          61.81          3.965           9.66         -142.1          70.13          47.54          71.86          78.02
    0.2922              -39.63          17.49          79.87           61.8          3.962          9.659         -142.1          70.11           47.5          71.86          78.01
    0.3287              -39.63          17.48          79.86           61.8          3.958          9.658         -142.0          70.09          47.46          71.85           78.0
    0.3652              -39.62          17.48          79.84          61.79          3.954          9.656         -142.0          70.07          47.41          71.85          77.99
    0.4017              -39.62          17.48          79.83          61.79          3.949          9.655         -141.9          70.04          47.36          71.84          77.98
    0.4383              -39.62          17.47          79.81          61.78          3.945          9.653         -141.9          70.01          47.31          71.84          77.97
    0.4748              -39.61          17.47           79.8          61.77          3.939          9.652         -141.8          69.99          47.25          71.83          77.95
    0.5113               -39.6          17.47          79.78          61.76          3.934           9.65         -141.7          69.95          47.18          71.83          77.94
    0.5478               -39.6          17.46          79.76          61.75          3.928          9.648         -141.6          69.92          47.12          71.82          77.92
    0.5843              -39.59          17.46          79.74          61.74          3.921          9.645         -141.6          69.88          47.04          71.81           77.9
    0.6209              -39.58          17.45          79.71          61.73          3.914          9.643         -141.5          69.84          46.96          71.81          77.88
    0.6574              -39.58          17.45          79.69          61.72          3.906           9.64         -141.4           69.8          46.87           71.8          77.86
    0.6939              -39.57          17.44          79.66          61.71          3.897          9.637         -141.3          69.75          46.77          71.79          77.84
    0.7304              -39.56          17.44          79.63          61.69          3.888          9.634         -141.1          69.69          46.67          71.78          77.81
    0.7669              -39.55          17.43          79.59          61.68          3.877          9.631         -141.0          69.64          46.55          71.77          77.78
    0.8035              -39.54          17.42          79.55          61.66          3.866          9.627         -140.8          69.57          46.42          71.76          77.75
      0.84              -39.52          17.41          79.51          61.64          3.853          9.623         -140.7           69.5          46.28          71.75          77.71
    0.8765              -39.51           17.4          79.46          61.62          3.839          9.618         -140.5          69.42          46.12          71.73          77.67
     0.913               -39.5          17.39          79.41           61.6          3.823          9.613         -140.3          69.33          45.94          71.71          77.63
    0.9495              -39.48          17.38          79.35          61.57          3.805          9.607         -140.1          69.23          45.74           71.7          77.58
    0.9861              -39.46          17.37          79.29          61.54          3.785            9.6         -139.8          69.12          45.52          71.68          77.53
     1.023              -39.44          17.35          79.21          61.51          3.763          9.592         -139.5          68.99          45.27          71.65          77.47
     1.059              -39.41          17.34          79.13          61.47          3.737          9.584         -139.2          68.84          44.98          71.63          77.39
     1.096              -39.38          17.32          79.03          61.43          3.708          9.574         -138.8          68.68          44.65           71.6          77.31
     1.132              -39.35           17.3          78.92          61.38          3.674          9.563         -138.3          68.49          44.27          71.56          77.22
     1.169              -39.31          17.27          78.79          61.32          3.635           9.55         -137.8          68.27          43.84          71.52          77.12
     1.205              -39.27          17.24          78.65          61.25           3.59          9.535         -137.2          68.02          43.34          71.48          76.99
     1.242              -39.21          17.21          78.47          61.18          3.538          9.517         -136.6          67.72          42.74          71.43          76.85
     1.278              -39.15          17.17          78.27          61.08          3.476          9.496         -135.7          67.37          42.05          71.36          76.68
     1.315              -39.08          17.12          78.03          60.97          3.402          9.472         -134.8          66.95          41.22          71.29          76.47
     1.351              -38.99          17.06          77.73          60.84          3.313          9.442         -133.6          66.46          40.23           71.2          76.23
     1.388              -38.89          16.99          77.38          60.68          3.206          9.406         -132.2          65.85          39.03          71.09          75.93
     1.424              -38.76          16.91          76.95          60.49          3.075          9.363         -130.5          65.12          37.56          70.96          75.57
     1.461               -38.6           16.8          76.42          60.25          2.914          9.309         -128.4          64.21          35.75          70.79          75.13
     1.497               -38.4          16.67          75.76          59.95          2.713          9.241         -125.8          63.07           33.5          70.59          74.58
     1.534              -38.15           16.5          74.92          59.58          2.459          9.156         -122.5          61.64          30.66          70.33          73.88
      1.57              -37.83          16.29          73.86           59.1          2.137          9.049         -118.3          59.83          27.04          70.01          72.99
     1.607              -37.43          16.02           72.5          58.48          1.724          8.911         -112.9           57.5          22.42          69.59          71.86
     1.643               -36.9          15.67          70.76           57.7          1.195          8.734         -106.0          54.52          16.48          69.05           70.4
      1.68              -36.24          15.23          68.53           56.7         0.5188          8.507         -97.16           50.7          8.905          68.37          68.54
     1.716               -35.4          14.68          65.73          55.43        -0.3315          8.223         -86.06          45.91        -0.6265          67.51           66.2
     1.753              -34.38           14.0          62.32           53.9         -1.368          7.876         -72.54          40.07         -12.24          66.46          63.35
      1.79              -33.19          13.21          58.36          52.11         -2.569          7.475         -56.86           33.3          -25.7          65.24          60.05
     1.826              -31.91          12.36          54.08          50.18         -3.869           7.04         -39.89          25.97         -40.28          63.92          56.47
     1.863              -30.63          11.51           49.8          48.25          -5.17          6.605         -22.91          18.64         -54.86           62.6          52.89
     1.899              -29.45          10.72          45.84          46.47         -6.371          6.203         -7.238          11.87         -68.32          61.39          49.59
     1.936              -28.43          10.05          42.43          44.93         -7.407          5.856          6.286           6.03         -79.94          60.34          46.74
     1.972              -27.59          9.489          39.63          43.67         -8.257          5.572          17.38          1.237         -89.47          59.48           44.4
     2.009              -26.92          9.046           37.4          42.67         -8.934          5.346          26.21         -2.575         -97.05          58.79          42.54
     2.045               -26.4            8.7          35.66          41.88         -9.463          5.169          33.12         -5.559         -103.0          58.26          41.08
     2.082              -25.99           8.43           34.3          41.27         -9.876          5.031           38.5         -7.884         -107.6          57.84          39.95
     2.118              -25.67          8.219          33.24          40.79          -10.2          4.923          42.71         -9.701         -111.2          57.51          39.06
     2.155              -25.42          8.053          32.41          40.42         -10.45          4.838          46.02         -11.13         -114.1          57.25          38.36
